<svg xmlns="http://www.w3.org/2000/svg" width="500" height="337" viewBox="0 0 543.94 366.616"><defs><marker orient="auto" refY="0" refX="0" id="a" overflow="visible"><path d="M-10 0l-4 4L0 0l-14-4z" fill-rule="evenodd" stroke="#000" stroke-width="1.0664"/></marker></defs><path d="M133.658 8.848v349.285" fill="none" stroke="#000" stroke-width="6" stroke-linecap="round"/><path d="M385.658 8.848v349.285" fill="none" stroke="#000" stroke-width="6" stroke-linecap="round"/><path d="M188.571 250.22l228.748 31.292" fill="none" stroke="#000" marker-end="url(#a)" transform="translate(-43.199 -213.514)"/><path d="M188.571 274.22l228.748 31.292" fill="none" stroke="#000" marker-end="url(#a)" transform="translate(-43.199 -213.514)"/><path d="M417.32 312.22L188.57 343.511" fill="none" stroke="#000" marker-end="url(#a)" transform="translate(-43.199 -213.514)"/><g aria-label="FIN" style="line-height:0%;-inkscape-font-specification:'Droid Sans';text-align:start" font-weight="400" font-size="18" font-family="Droid Sans" letter-spacing="0" word-spacing="0"><path d="M170.784 123.787l-1.62.222-1.741-12.731 6.61-.905.195 1.428-4.99.683.615 4.493 4.658-.637.196 1.428-4.66.637z"/><path d="M181.538 122.316l-4.615.631-.121-.888 1.449-.562-1.401-10.24-1.547-.153-.121-.888 4.615-.631.121.888-1.449.562 1.401 10.24 1.547.153z"/><path d="M193.538 120.674l-1.872.256-7.703-9.68-.07.01q.145.664.27 1.32.112.562.214 1.178.111.614.179 1.11l.945 6.906-1.498.205-1.742-12.73 1.855-.255 7.67 9.632.06-.008q-.117-.658-.24-1.298-.046-.278-.103-.562-.05-.295-.106-.58l-.095-.564-.068-.496-.953-6.967 1.515-.207z"/></g><path d="M188.571 348.22l228.748 31.292" fill="none" stroke="#000" marker-end="url(#a)" transform="translate(-43.199 -213.514)"/><g aria-label="FIN,ACK" style="line-height:0%;-inkscape-font-specification:'Droid Sans';text-align:start" font-weight="400" font-size="18" font-family="Droid Sans" letter-spacing="0" word-spacing="0"><path d="M290.343 151.02l-1.62-.22 1.742-12.732 6.61.904-.196 1.428-4.99-.682-.614 4.493 4.659.637-.196 1.428-4.659-.637z"/><path d="M301.098 152.492l-4.616-.632.122-.888 1.547-.152 1.4-10.24-1.448-.562.121-.889 4.615.632-.121.888-1.547.152-1.4 10.24 1.448.563z"/><path d="M313.097 154.133l-1.872-.256-4.82-11.393-.07-.01q-.039.678-.095 1.344-.042.571-.11 1.192-.058.622-.126 1.118l-.944 6.905-1.498-.205 1.742-12.73 1.854.253 4.801 11.338.061.008q.064-.666.118-1.315.03-.28.051-.57.032-.297.054-.587l.06-.568.068-.496.953-6.967 1.515.208z"/><path d="M318.257 152.728l.103.218q-.186.454-.433.961-.238.509-.52 1.02-.275.512-.574 1.013-.291.51-.576.968l-1.202-.165q.204-.513.404-1.071.21-.557.401-1.116.2-.55.37-1.076.17-.536.303-.988z"/><path d="M328.467 156.236l-.854-4.135-4.746-.65-1.95 3.752-1.637-.224 6.425-12.143 1.48.202 2.936 13.424zm-1.171-5.642l-.784-3.869q-.03-.164-.078-.401-.039-.236-.081-.508-.043-.272-.083-.561-.04-.298-.072-.578-.098.262-.216.539-.117.276-.233.535-.114.25-.223.467-.1.208-.172.349l-1.768 3.52z"/><path d="M338.415 145.896q-.932-.127-1.738.126-.805.245-1.436.833-.622.589-1.047 1.497-.418.91-.58 2.103-.169 1.228-.047 2.22.131.985.555 1.709.425.723 1.145 1.168.72.444 1.747.585.775.106 1.492.053.718-.061 1.425-.169l-.193 1.41q-.358.085-.712.143-.352.05-.735.06-.374.01-.804-.022-.423-.022-.937-.093-1.428-.195-2.409-.808-.98-.613-1.55-1.57-.562-.955-.727-2.21-.165-1.256.036-2.728.198-1.445.737-2.596.547-1.149 1.397-1.911.858-.76 2.012-1.09 1.154-.33 2.564-.138.94.129 1.768.437.827.308 1.465.768l-.865 1.266q-.51-.354-1.127-.642-.617-.289-1.436-.4z"/><path d="M351.03 159.322l-1.838-.25-3.096-6.616-1.346.827-.696 5.085-1.62-.221 1.742-12.731 1.62.221-.871 6.366 1.254-1.319 4.606-4.364 1.82.249-5.287 4.927z"/></g><path d="M417.32 386.22L280 407.511" fill="none" stroke="#000" marker-end="url(#a)" transform="translate(-43.199 -213.514)"/><g aria-label="ACK" style="line-height:0%;-inkscape-font-specification:'Droid Sans';text-align:start" font-weight="400" font-size="18" font-family="Droid Sans" letter-spacing="0" word-spacing="0"><path d="M330.208 197.417l-1.933-3.754-4.745.65-.871 4.137-1.638.224 2.928-13.423 1.48-.202 6.434 12.142zm-2.643-5.12l-1.794-3.516q-.073-.15-.183-.365l-.215-.468q-.114-.25-.23-.518-.118-.277-.224-.537-.024.278-.063.576-.04.298-.081.579-.043.272-.09.509-.04.227-.072.382l-.757 3.865z"/><path d="M337.014 184.786q-.932.127-1.64.588-.71.452-1.16 1.187-.44.735-.607 1.725-.157.988.006 2.181.168 1.228.552 2.151.391.914.994 1.496.603.583 1.416.818t1.84.094q.775-.106 1.452-.35.675-.251 1.327-.544l.193 1.41q-.322.177-.647.328-.327.143-.693.255-.357.11-.78.195-.414.092-.927.163-1.428.195-2.538-.132-1.109-.328-1.915-1.096-.797-.769-1.294-1.934-.496-1.165-.697-2.637-.198-1.445.012-2.698.219-1.254.832-2.216.622-.964 1.645-1.592 1.023-.627 2.434-.82.94-.13 1.82-.054.88.075 1.618.346l-.494 1.452q-.586-.204-1.258-.316-.672-.112-1.49 0z"/><path d="M352.77 194.33l-1.837.252-4.758-5.54-1.075 1.158.696 5.085-1.62.222-1.742-12.731 1.62-.222.87 6.366.854-1.608 3.266-5.44 1.82-.25-3.77 6.167z"/></g><g style="line-height:0%;-inkscape-font-specification:'Droid Sans';text-align:start"><path d="M114.264 90.487c0-8.205-1.812-13.226-10.022-14.696v-.49c8.693-1.837 10.022-7.715 10.022-16.165V38.318c0-7.226 2.052-11.512 8.452-13.226v-.245c-12.92-.612-16.18 4.653-16.18 17.757V62.32c0 7.96-1.449 11.39-9.177 12.981v.49c7.004.613 9.177 6.858 9.177 12.981v22.043c0 12.492 4.347 15.92 16.542 15.92v-.244c-7.003-1.96-8.814-5.756-8.814-13.226z" style="line-height:1.25;-inkscape-font-specification:'ITC New Baskerville Std'" font-size="121.601" font-family="ITC New Baskerville Std" aria-label="{" font-weight="400" letter-spacing="0" word-spacing="0"/></g><g aria-label="ESTABLISHED" style="line-height:0%;-inkscape-font-specification:'Droid Sans';text-align:start" font-weight="400" font-family="Droid Sans" letter-spacing="0" word-spacing="0" font-size="20"><path d="M87.148 126.782v7.413H72.871v-7.413h1.602v5.596h4.414v-5.224h1.582v5.224h5.078v-5.596z" style="line-height:1.25"/><path d="M83.33 116.128q.947 0 1.7.342.741.332 1.259.957.518.625.791 1.523.264.899.264 2.022 0 1.084-.176 2.031-.166.938-.498 1.572h-1.738q.156-.332.312-.752.147-.43.264-.898.117-.469.195-.967.068-.498.068-.986 0-1.563-.585-2.305-.586-.752-1.68-.752-.528 0-.918.147-.39.136-.713.498-.332.351-.635.947-.312.596-.674 1.504-.341.87-.742 1.514-.41.634-.918 1.054-.508.41-1.152.616-.645.195-1.465.195-.86 0-1.533-.313-.674-.312-1.133-.879-.469-.566-.713-1.347-.244-.791-.244-1.738 0-1.163.225-2.09.214-.928.556-1.65l1.524.654q-.284.634-.489 1.445-.214.8-.214 1.66 0 1.191.556 1.846.547.654 1.485.654.556 0 .966-.146.4-.147.733-.489.322-.342.615-.898.283-.567.605-1.387.352-.889.723-1.553.371-.673.84-1.123.469-.449 1.084-.673.615-.235 1.455-.235z" style="line-height:1.25"/><path d="M87.148 109.097v1.826H74.473v4.082H72.87v-9.98h1.602v4.072z" style="line-height:1.25"/><path d="M87.148 95.718l-4.423 1.562v5.323l4.423 1.582v1.836l-14.336-5.244v-1.66l14.336-5.255zm-6.035 2.139l-4.14 1.445-.43.146q-.254.079-.547.166-.293.088-.605.176-.323.088-.625.166.302.069.625.156.322.088.625.176.293.088.546.176.245.078.41.137l4.141 1.416z" style="line-height:1.25"/><path d="M72.871 91.929v-3.897q0-1.25.195-2.197.186-.957.616-1.592.42-.644 1.113-.966.683-.323 1.69-.323.605 0 1.132.196.527.185.928.546.4.362.674.899.263.527.351 1.201h.098q.117-.674.342-1.26.215-.595.605-1.035.381-.44.967-.693.586-.254 1.426-.254.976 0 1.748.322.762.313 1.299.918.527.596.81 1.455.283.86.283 1.944v4.736zm6.055-1.817V87.73q0-.82-.147-1.377-.146-.557-.43-.899-.292-.342-.722-.488-.44-.156-1.016-.156-1.172 0-1.68.752-.507.752-.507 2.373v2.177zm1.523 0h5.156v-2.597q0-.86-.195-1.436-.195-.586-.547-.937-.351-.362-.84-.518-.498-.156-1.093-.156-.547 0-1.006.166-.46.156-.781.527-.333.362-.508.967-.186.606-.186 1.504z" style="line-height:1.25"/><path d="M87.148 79.507H72.871v-1.816h12.656v-5.596h1.621z" style="line-height:1.25"/><path d="M87.148 65.63v5.176h-.996l-.4-1.68H74.268l-.4 1.68h-.997V65.63h.996l.4 1.68h11.485l.4-1.68z" style="line-height:1.25"/><path d="M83.33 55.347q.947 0 1.7.342.741.332 1.259.957.518.625.791 1.523.264.899.264 2.022 0 1.084-.176 2.03-.166.938-.498 1.573h-1.738q.156-.332.312-.752.147-.43.264-.898.117-.469.195-.967.068-.498.068-.986 0-1.563-.585-2.305-.586-.752-1.68-.752-.528 0-.918.146-.39.137-.713.499-.332.351-.635.947-.312.595-.674 1.504-.341.869-.742 1.513-.41.635-.918 1.055-.508.41-1.152.615-.645.196-1.465.196-.86 0-1.533-.313-.674-.312-1.133-.879-.469-.566-.713-1.347-.244-.791-.244-1.739 0-1.162.225-2.09.214-.927.556-1.65l1.524.654q-.284.635-.489 1.446-.214.8-.214 1.66 0 1.191.556 1.845.547.655 1.485.655.556 0 .966-.147.4-.146.733-.488.322-.342.615-.898.283-.567.605-1.387.352-.889.723-1.553.371-.674.84-1.123.469-.45 1.084-.674.615-.234 1.455-.234z" style="line-height:1.25"/><path d="M87.148 42.34v1.815h-6.66v6.504h6.66v1.817H72.871v-1.817h6.016v-6.504H72.87V42.34z" style="line-height:1.25"/><path d="M87.148 31.04v7.412H72.871V31.04h1.602v5.596h4.414V31.41h1.582v5.225h5.078V31.04z" style="line-height:1.25"/><path d="M79.873 17.388q1.807 0 3.174.469 1.357.468 2.275 1.357.908.889 1.367 2.188.46 1.289.46 2.93v3.573H72.87v-3.974q0-1.494.45-2.705.448-1.211 1.337-2.06.88-.85 2.188-1.31 1.308-.468 3.027-.468zm.059 1.924q-1.426 0-2.461.322-1.045.322-1.72.937-.673.616-.995 1.514-.332.899-.332 2.041v1.963h11.162v-1.582q0-2.578-1.426-3.887-1.426-1.308-4.228-1.308z" style="line-height:1.25"/></g><g style="line-height:0%;-inkscape-font-specification:'Droid Sans';text-align:start"><path d="M406.174 127.938c0-5.386 1.811-8.682 10.022-9.647v-.322c-8.694-1.205-10.022-5.064-10.022-10.612V93.69c0-4.743-2.053-7.557-8.452-8.683v-.16c12.92-.402 16.18 3.055 16.18 11.657v12.944c0 5.225 1.448 7.476 9.176 8.521v.322c-7.003.402-9.177 4.502-9.177 8.522v14.471c0 8.2-4.346 10.451-16.542 10.451v-.16c7.004-1.287 8.815-3.779 8.815-8.683z" style="line-height:1.25;-inkscape-font-specification:'ITC New Baskerville Std'" font-size="98.526" font-family="ITC New Baskerville Std" aria-label="{" font-weight="400" letter-spacing="0" word-spacing="0"/></g><g aria-label="FIN-WAIT-1" style="line-height:0%;-inkscape-font-specification:'Droid Sans';text-align:start" font-weight="400" font-family="Droid Sans" letter-spacing="0" word-spacing="0" font-size="20"><path d="M434.482 125.46h-1.816v-14.278h7.412v1.601h-5.596v5.04h5.225v1.601h-5.225z" style="line-height:1.25"/><path d="M446.543 125.46h-5.176v-.997l1.68-.4v-11.485l-1.68-.4v-.996h5.176v.996l-1.68.4v11.485l1.68.4z" style="line-height:1.25"/><path d="M460 125.46h-2.1l-7.021-11.817h-.078q.058.752.097 1.494.04.635.059 1.328.03.693.03 1.25v7.744h-1.68v-14.277h2.08l6.992 11.758h.068q-.029-.743-.068-1.465-.01-.313-.03-.635-.01-.332-.029-.654l-.02-.635v-8.369h1.7z" style="line-height:1.25"/><path d="M462.734 120.918v-1.64h4.844v1.64z" style="line-height:1.25"/><path d="M476.28 111.182h1.923l2.236 8.36q.147.546.284 1.093.146.547.263 1.064.127.508.215.967.098.46.156.83.04-.37.098-.81.059-.44.137-.918.078-.489.166-.987.097-.507.205-.986l1.953-8.613h1.943l-3.584 14.277h-1.836l-2.48-9.16q-.137-.498-.264-1.025-.127-.528-.234-.987-.117-.537-.225-1.045-.107.498-.215 1.036-.097.458-.224 1.005-.117.547-.254 1.075l-2.363 9.101h-1.836l-3.77-14.277h1.924l2.178 8.681q.117.45.215.938.097.478.175.957.088.478.157.928.068.44.117.81.049-.361.117-.84.078-.478.176-1.005.097-.528.205-1.065.117-.547.244-1.025z" style="line-height:1.25"/><path d="M495.986 125.46l-1.562-4.425H489.1l-1.582 4.424h-1.835l5.244-14.336h1.66l5.254 14.336zm-2.138-6.036l-1.446-4.14q-.058-.176-.146-.43l-.166-.547q-.088-.293-.176-.606-.088-.322-.166-.625-.068.303-.156.625-.088.323-.176.625-.088.293-.176.547-.078.244-.137.41l-1.416 4.141z" style="line-height:1.25"/><path d="M503.809 125.46h-5.176v-.997l1.68-.4v-11.485l-1.68-.4v-.996h5.176v.996l-1.68.4v11.485l1.68.4z" style="line-height:1.25"/><path d="M510.732 125.46h-1.826v-12.677h-4.082v-1.601h9.98v1.601h-4.072z" style="line-height:1.25"/><path d="M514.844 120.918v-1.64h4.843v1.64z" style="line-height:1.25"/><path d="M527.432 125.46h-1.72v-8.917-.898l.02-.948q.02-.478.03-.908.02-.44.029-.771-.166.176-.293.302-.127.127-.264.245l-.273.254-.352.302-1.445 1.182-.938-1.201 3.74-2.92h1.466z" style="line-height:1.25"/></g><g style="line-height:0%;-inkscape-font-specification:'Droid Sans';text-align:start"><path d="M406.174 204.54c0-5.961 1.811-9.61 10.022-10.677v-.356c-8.694-1.335-10.022-5.606-10.022-11.746v-15.126c0-5.25-2.053-8.364-8.452-9.61v-.178c12.92-.445 16.18 3.381 16.18 12.902v14.326c0 5.784 1.448 8.275 9.176 9.432v.356c-7.003.445-9.176 4.983-9.176 9.432v16.016c0 9.076-4.347 11.568-16.543 11.568v-.178c7.004-1.424 8.815-4.182 8.815-9.61z" style="line-height:1.25;-inkscape-font-specification:'ITC New Baskerville Std'" font-size="103.653" font-family="ITC New Baskerville Std" aria-label="{" font-weight="400" letter-spacing="0" word-spacing="0"/></g><g aria-label="TIME-WAIT" style="line-height:0%;-inkscape-font-specification:'Droid Sans';text-align:start" font-weight="400" font-family="Droid Sans" letter-spacing="0" word-spacing="0" font-size="20"><path d="M436.826 201.03H435v-12.675h-4.082v-1.602h9.98v1.602h-4.072z" style="line-height:1.25"/><path d="M447.09 201.03h-5.176v-.996l1.68-.4V188.15l-1.68-.4v-.997h5.176v.996l-1.68.4v11.485l1.68.4z" style="line-height:1.25"/><path d="M455.752 201.03l-4.326-12.5h-.078q.058.723.097 1.436.04.615.059 1.299.03.674.03 1.23v8.536h-1.68v-14.278h2.695l4.023 11.64h.059l4.043-11.64h2.695v14.278h-1.816v-8.663q0-.507.02-1.162.019-.654.048-1.25.04-.693.068-1.406h-.078l-4.365 12.48z" style="line-height:1.25"/><path d="M474.687 201.03h-7.412v-14.277h7.412v1.602h-5.595v4.414h5.224v1.582h-5.224v5.078h5.595z" style="line-height:1.25"/><path d="M476.68 196.49v-1.641h4.843v1.64z" style="line-height:1.25"/><path d="M490.225 186.753h1.923l2.237 8.36q.146.546.283 1.093.146.547.264 1.065.127.508.214.967.098.459.157.83.039-.371.097-.81.059-.44.137-.919.078-.488.166-.986.098-.508.205-.986l1.953-8.614h1.944l-3.584 14.278h-1.836l-2.48-9.16q-.138-.499-.264-1.026-.127-.527-.235-.986-.117-.537-.224-1.045-.108.498-.215 1.035-.098.459-.225 1.006-.117.547-.254 1.074l-2.363 9.102h-1.836l-3.77-14.278h1.924l2.178 8.682q.117.45.215.937.098.479.176.957.087.479.156.928.068.44.117.81.049-.36.117-.84.078-.478.176-1.005.098-.527.205-1.064.117-.547.244-1.026z" style="line-height:1.25"/><path d="M509.932 201.03l-1.563-4.423h-5.322l-1.582 4.424h-1.836l5.244-14.336h1.66l5.254 14.336zm-2.14-6.035l-1.444-4.14q-.059-.176-.147-.43l-.166-.547q-.088-.293-.176-.605-.088-.323-.166-.625-.068.302-.156.625-.088.322-.176.625-.088.293-.176.547-.078.244-.136.41l-1.416 4.14z" style="line-height:1.25"/><path d="M517.754 201.03h-5.176v-.996l1.68-.4V188.15l-1.68-.4v-.997h5.176v.996l-1.68.4v11.485l1.68.4z" style="line-height:1.25"/><path d="M524.678 201.03h-1.827v-12.675h-4.082v-1.602h9.98v1.602h-4.071z" style="line-height:1.25"/></g><g style="line-height:0%;-inkscape-font-specification:'Droid Sans';text-align:start"><path d="M114.264 267.892c0-17.006-1.812-27.412-10.022-30.458v-1.015c8.693-3.807 10.022-15.99 10.022-33.504v-43.148c0-14.976 2.052-23.86 8.452-27.412v-.508c-12.92-1.27-16.18 9.645-16.18 36.803v40.864c0 16.498-1.449 23.605-9.177 26.905v1.015c7.004 1.27 9.177 14.214 9.177 26.905v45.686c0 25.89 4.347 32.996 16.542 32.996v-.507c-7.003-4.061-8.814-11.93-8.814-27.412z" style="line-height:1.25;-inkscape-font-specification:'ITC New Baskerville Std'" font-size="175.063" font-family="ITC New Baskerville Std" aria-label="{" font-weight="400" letter-spacing="0" word-spacing="0"/></g><g aria-label="LAST-ACK" style="line-height:0%;-inkscape-font-specification:'Droid Sans';text-align:start" font-weight="400" font-family="Droid Sans" letter-spacing="0" word-spacing="0" font-size="20"><path d="M5.44 244.578V230.3h1.816v12.657h5.596v1.62z" style="line-height:1.25"/><path d="M23.643 244.578l-1.563-4.424h-5.322l-1.582 4.424H13.34l5.244-14.336h1.66l5.254 14.336zm-2.14-6.035l-1.444-4.141q-.059-.176-.147-.43l-.166-.547q-.088-.293-.176-.605-.088-.322-.166-.625-.068.303-.156.625t-.176.625q-.088.293-.176.547-.078.244-.136.41l-1.416 4.14z" style="line-height:1.25"/><path d="M34.951 240.76q0 .947-.342 1.699-.332.742-.957 1.26-.625.517-1.523.79-.899.264-2.022.264-1.084 0-2.03-.176-.938-.166-1.573-.498v-1.738q.332.156.752.312.43.147.898.264.469.117.967.195.498.069.986.069 1.563 0 2.305-.586.752-.586.752-1.68 0-.527-.146-.918-.137-.39-.499-.713-.351-.332-.947-.634-.595-.313-1.504-.674-.869-.342-1.513-.742-.635-.41-1.055-.918-.41-.508-.615-1.153-.196-.644-.196-1.465 0-.859.313-1.533.312-.674.879-1.133.566-.468 1.347-.713.791-.244 1.739-.244 1.162 0 2.09.225.927.215 1.65.557l-.654 1.523q-.635-.283-1.446-.488-.8-.215-1.66-.215-1.191 0-1.845.557-.655.546-.655 1.484 0 .557.147.967.146.4.488.732.342.322.898.615.567.284 1.387.606.889.351 1.553.722.674.372 1.123.84.45.47.674 1.084.234.616.234 1.455z" style="line-height:1.25"/><path d="M41.982 244.578h-1.826v-12.676h-4.082V230.3h9.98v1.602h-4.072z" style="line-height:1.25"/><path d="M46.094 240.037v-1.64h4.843v1.64z" style="line-height:1.25"/><path d="M62.041 244.578l-1.563-4.424h-5.322l-1.582 4.424h-1.836l5.244-14.336h1.66l5.254 14.336zm-2.139-6.035l-1.445-4.141q-.059-.176-.147-.43l-.166-.547q-.087-.293-.175-.605-.088-.322-.166-.625-.069.303-.157.625-.087.322-.175.625-.088.293-.176.547-.078.244-.137.41l-1.416 4.14z" style="line-height:1.25"/><path d="M71.435 231.697q-1.044 0-1.894.4-.85.39-1.455 1.133-.596.742-.928 1.807-.322 1.064-.322 2.402 0 1.377.283 2.451.293 1.065.87 1.797.575.733 1.435 1.113.86.381 2.011.381.87 0 1.65-.166.782-.176 1.544-.4v1.582q-.381.146-.762.264-.38.107-.8.175-.41.069-.89.098-.468.039-1.044.039-1.602 0-2.774-.527-1.172-.528-1.943-1.494-.762-.967-1.133-2.325-.37-1.357-.37-3.008 0-1.62.419-2.968.43-1.348 1.25-2.315.83-.967 2.05-1.504 1.221-.537 2.803-.537 1.055 0 2.012.215.957.215 1.729.625l-.762 1.524q-.615-.313-1.338-.538-.723-.224-1.64-.224z" style="line-height:1.25"/><path d="M87.344 244.578h-2.06l-4.405-6.817-1.358 1.114v5.703h-1.816V230.3h1.816v7.139l1.182-1.64 4.414-5.499h2.041l-5.078 6.221z" style="line-height:1.25"/></g><path d="M417.32 478.22L188.57 509.511" fill="none" stroke="#000" marker-end="url(#a)" transform="translate(-43.199 -213.514)"/><path d="M188.571 514.22l228.748 31.292" fill="none" stroke="#000" marker-end="url(#a)" transform="translate(-43.199 -213.514)"/><g aria-label="SYN" style="line-height:0%;-inkscape-font-specification:'Droid Sans';text-align:start" font-weight="400" font-size="18" font-family="Droid Sans" letter-spacing="0" word-spacing="0"><path d="M330.805 263.544q.116.844-.098 1.557-.205.702-.7 1.24-.493.537-1.261.89-.77.345-1.77.482-.967.133-1.833.091-.857-.033-1.463-.252l-.212-1.55q.315.099.709.187.4.078.833.126.432.047.886.056.452 0 .888-.06 1.393-.19 1.983-.803.6-.614.466-1.59-.064-.47-.243-.8-.17-.332-.53-.575-.355-.254-.923-.45-.57-.207-1.423-.418-.817-.199-1.44-.477-.616-.289-1.053-.69-.428-.403-.689-.953-.253-.55-.353-1.282-.105-.766.092-1.405.196-.64.645-1.118.448-.487 1.115-.8.676-.314 1.52-.43 1.036-.141 1.891-.054.854.078 1.54.295l-.398 1.438q-.6-.175-1.348-.259-.74-.094-1.507.01-1.062.146-1.578.722-.516.568-.402 1.404.068.496.248.844.18.34.525.594.344.245.876.439.54.183 1.31.37.836.205 1.473.455.647.249 1.104.612.458.363.733.885.284.52.387 1.268z"/><path d="M335.93 259.897l2.08-6.84 1.742-.238-2.82 8.307.678 4.955-1.628.223-.666-4.868-4.96-7.332 1.768-.242z"/><path d="M352.77 264.007l-1.872.256-7.702-9.68-.07.01q.144.664.27 1.32.112.562.214 1.178.11.614.179 1.11l.944 6.906-1.498.205-1.741-12.73 1.855-.255 7.669 9.632.06-.008q-.116-.658-.239-1.298-.047-.278-.104-.562-.049-.295-.105-.58l-.095-.564-.068-.496-.953-6.967 1.515-.207z"/></g><g aria-label="RST" style="line-height:0%;-inkscape-font-specification:'Droid Sans';text-align:start" font-weight="400" font-size="18" font-family="Droid Sans" letter-spacing="0" word-spacing="0"><path d="M326.243 315.761l-.72 5.26-1.62-.222 1.742-12.731 3.1.424q2.317.317 3.3 1.365.983 1.048.734 2.868-.103.758-.399 1.294-.286.538-.699.898-.403.353-.893.561-.49.208-.992.317l2.685 6.177-1.907-.26-2.337-5.678zm.188-1.376l1.428.196q.784.107 1.353.034.57-.082.959-.33.398-.256.616-.679.227-.43.31-1.031.085-.627-.038-1.087-.115-.46-.442-.788-.32-.328-.86-.526-.53-.206-1.288-.31l-1.393-.19z"/><path d="M341.594 319.75q-.116.845-.512 1.474-.387.621-1.007 1.007-.62.385-1.455.52-.833.125-1.835-.012-.966-.133-1.79-.405-.815-.262-1.34-.636l.211-1.55q.277.18.633.37.365.184.769.345.403.162.838.292.436.122.87.182 1.394.19 2.127-.242.742-.43.876-1.406.064-.47-.019-.836-.074-.365-.357-.697-.273-.339-.767-.681-.493-.351-1.259-.784-.733-.411-1.26-.847-.515-.443-.828-.947-.303-.503-.408-1.103-.095-.598.005-1.33.105-.766.466-1.329.36-.562.922-.903.562-.349 1.289-.47.735-.122 1.58-.007 1.036.142 1.836.455.8.305 1.403.698l-.769 1.279q-.531-.33-1.23-.612-.687-.29-1.453-.394-1.063-.146-1.714.271-.65.408-.765 1.244-.067.496.013.88.082.375.346.712.266.33.726.659.47.321 1.163.709.75.422 1.296.833.556.414.9.886.343.473.468 1.05.134.576.031 1.325z"/><path d="M347.398 324.013l-1.629-.223 1.547-11.303-3.64-.498.195-1.428 8.9 1.218-.196 1.428-3.63-.497z"/></g><g aria-label="(shortened)" style="line-height:0%;-inkscape-font-specification:'Droid Sans';text-align:start" font-weight="400" font-family="Droid Sans" letter-spacing="0" word-spacing="0" font-size="14"><path d="M443.955 211.196q0-.855.124-1.682.123-.834.376-1.613.252-.786.635-1.504.39-.725.923-1.36h1.176q-.957 1.319-1.456 2.898-.492 1.579-.492 3.247 0 .813.123 1.62.13.807.369 1.58.246.772.608 1.496.363.725.834 1.367h-1.162q-.533-.615-.923-1.319-.383-.704-.635-1.47-.253-.772-.376-1.592-.124-.82-.124-1.668z" style="line-height:1.25"/><path d="M453.287 212.973q0 .547-.199.957-.198.41-.574.69-.37.274-.895.41-.527.137-1.183.137-.745 0-1.278-.123-.534-.116-.937-.348v-1.135q.212.11.472.219.26.102.547.184.287.082.588.137.307.048.608.048.444 0 .752-.075.314-.076.506-.212.198-.144.287-.342.089-.205.089-.451 0-.212-.069-.383-.068-.171-.253-.335-.177-.171-.492-.342-.314-.17-.806-.383-.493-.212-.889-.417-.39-.205-.663-.458-.274-.253-.424-.58-.144-.336-.144-.794 0-.478.185-.847.191-.376.533-.63.342-.252.82-.382.48-.13 1.067-.13.663 0 1.21.144.554.143 1.046.375l-.43 1.005q-.445-.198-.917-.341-.465-.15-.95-.15-.697 0-1.032.232-.335.225-.335.649 0 .24.075.417.082.178.273.335.192.157.513.321.321.157.8.356.492.205.875.41.39.205.663.465.273.253.417.58.144.329.144.787z" style="line-height:1.25"/><path d="M459.801 215.03v-4.832q0-.89-.362-1.333-.356-.445-1.121-.445-.554 0-.93.178t-.608.526q-.226.349-.328.855-.096.506-.096 1.162v3.89h-1.244v-10.637h1.244v3.158l-.055.984h.069q.17-.293.403-.505.24-.22.52-.363t.594-.212q.315-.068.643-.068 1.25 0 1.88.656.635.65.635 2.085v4.902z" style="line-height:1.25"/><path d="M469.488 211.264q0 .937-.233 1.668-.225.725-.656 1.224-.424.492-1.032.752-.609.26-1.367.26-.704 0-1.3-.26-.594-.26-1.031-.752-.431-.5-.677-1.224-.24-.731-.24-1.668 0-.93.226-1.647.233-.725.656-1.217.424-.5 1.033-.752.615-.26 1.374-.26.704 0 1.298.26.595.253 1.026.752.437.492.677 1.217.246.717.246 1.647zm-5.25 0q0 1.429.465 2.153.471.718 1.524.718t1.51-.718q.466-.724.466-2.153t-.472-2.133q-.465-.71-1.518-.71-1.052 0-1.517.71-.458.704-.458 2.133z" style="line-height:1.25"/><path d="M474.71 207.388q.199 0 .445.02.246.014.424.048l-.165 1.149q-.19-.034-.396-.055-.198-.027-.376-.027-.43 0-.786.178-.356.17-.615.499-.253.32-.397.779-.137.451-.137 1.005v4.047h-1.244v-7.506h1.012l.15 1.374h.055q.171-.294.362-.568.199-.273.438-.478.246-.212.547-.335.3-.13.683-.13z" style="line-height:1.25"/><path d="M479.311 214.149q.123 0 .273-.014.158-.014.301-.034.144-.02.26-.048.123-.027.185-.048v.944q-.09.04-.226.082-.137.04-.3.068-.165.034-.343.048-.177.02-.348.02-.424 0-.786-.11-.363-.109-.63-.375-.26-.267-.41-.718-.15-.458-.15-1.148v-4.355h-1.06v-.553l1.06-.534.533-1.572h.718v1.723h1.887v.936h-1.887v4.355q0 .663.212.998.219.335.711.335z" style="line-height:1.25"/><path d="M484.766 215.167q-.752 0-1.374-.253-.622-.253-1.073-.738-.445-.485-.69-1.203-.247-.718-.247-1.64 0-.93.226-1.662.225-.731.636-1.237.41-.513.977-.78.574-.266 1.265-.266.677 0 1.217.246.54.24.916.684.376.437.574 1.06.205.615.205 1.366v.773h-4.73q.034 1.32.553 1.941.526.622 1.559.622.348 0 .642-.034.301-.034.575-.095.28-.069.54-.165.26-.102.526-.225v1.107q-.274.13-.54.226-.26.096-.54.157-.274.062-.574.089-.294.027-.643.027zm-.308-6.747q-.779 0-1.237.533-.451.534-.526 1.552h3.363q0-.465-.096-.847-.089-.39-.287-.664-.191-.273-.492-.423-.3-.15-.725-.15z" style="line-height:1.25"/><path d="M493.98 215.03v-4.832q0-.89-.361-1.333-.356-.445-1.122-.445-.553 0-.93.178-.375.178-.608.526-.225.349-.328.855-.095.506-.095 1.162v3.89h-1.245v-7.506h1.012l.178 1.011h.068q.171-.293.404-.505.239-.22.52-.363.28-.143.594-.212.314-.068.642-.068 1.251 0 1.88.656.636.65.636 2.085v4.902z" style="line-height:1.25"/><path d="M500.516 215.167q-.752 0-1.374-.253-.622-.253-1.073-.738-.445-.485-.69-1.203-.247-.718-.247-1.64 0-.93.226-1.662.225-.731.636-1.237.41-.513.977-.78.574-.266 1.265-.266.677 0 1.217.246.54.24.916.684.376.437.574 1.06.205.615.205 1.366v.773h-4.73q.034 1.32.553 1.941.526.622 1.559.622.348 0 .642-.034.301-.034.575-.095.28-.069.54-.165.26-.102.526-.225v1.107q-.274.13-.54.226-.26.096-.54.157-.274.062-.574.089-.294.027-.643.027zm-.308-6.747q-.779 0-1.237.533-.451.534-.526 1.552h3.363q0-.465-.096-.847-.089-.39-.287-.664-.191-.273-.492-.423-.3-.15-.725-.15z" style="line-height:1.25"/><path d="M509.676 214.026h-.055q-.15.232-.355.444-.198.205-.465.362-.26.158-.588.246-.328.09-.738.09-.636 0-1.162-.247-.526-.246-.902-.731-.376-.492-.582-1.217-.205-.725-.205-1.682 0-.963.205-1.688.206-.732.582-1.224t.902-.738q.526-.253 1.162-.253.403 0 .731.089.329.089.588.24.267.15.472.348.205.198.355.417h.082l-.04-.444-.028-.363q-.014-.191-.014-.3v-2.981h1.245v10.637h-1.005zm-1.962.11q.52 0 .875-.158.363-.157.581-.479.226-.321.328-.8.11-.485.124-1.127v-.28q0-.691-.096-1.224-.09-.54-.315-.903-.218-.369-.588-.553-.369-.192-.922-.192-.923 0-1.36.745-.431.745-.431 2.14 0 1.429.43 2.133.438.697 1.374.697z" style="line-height:1.25"/><path d="M515.712 211.196q0 .847-.123 1.668-.123.82-.383 1.592-.252.766-.642 1.47-.383.704-.916 1.32h-1.162q.471-.643.834-1.368.362-.724.608-1.497.246-.772.37-1.579.122-.807.122-1.62 0-1.668-.492-3.247-.492-1.58-1.456-2.899h1.176q.533.636.916 1.36.39.719.642 1.505.26.779.383 1.613.123.827.123 1.682z" style="line-height:1.25"/></g><path d="M284.39 239.133h254.107" fill="none" stroke="#000" stroke-dasharray="3.00000002,3.00000002"/><g fill="none" stroke="#c90000" stroke-width="10" stroke-linecap="round"><path d="M237.47 182.026l-19.552 23" stroke-width="4.0113"/><path d="M216.194 183.75l23 19.552" stroke-width="4.0113"/></g></svg>